<svg width="31" height="31" viewBox="0 0 31 31" fill="none" xmlns="http://www.w3.org/2000/svg">
<g id="icon-park-solid:game-ps" clip-path="url(#clip0_4880_94223)">
<g id="Mask group">
<mask id="mask0_4880_94223" style="mask-type:luminance" maskUnits="userSpaceOnUse" x="0" y="0" width="31" height="31">
<g id="Group">
<g id="Group_2">
<path id="Vector" d="M27.9773 18.4698H17.9942V28.4529H27.9773V18.4698ZM8.63502 3.49512L14.2505 13.4782H3.01953L8.63502 3.49512ZM22.9857 13.4782C24.3096 13.4782 25.5792 12.9523 26.5153 12.0162C27.4514 11.0801 27.9773 9.81051 27.9773 8.48667C27.9773 7.16283 27.4514 5.89321 26.5153 4.95711C25.5792 4.02101 24.3096 3.49512 22.9857 3.49512C21.6619 3.49512 20.3923 4.02101 19.4562 4.95711C18.5201 5.89321 17.9942 7.16283 17.9942 8.48667C17.9942 9.81051 18.5201 11.0801 19.4562 12.0162C20.3923 12.9523 21.6619 13.4782 22.9857 13.4782Z" fill="white" stroke="white" stroke-width="4.99155" stroke-linejoin="round"/>
<path id="Vector_2" d="M3.01953 18.4707L13.0026 28.4538M13.0026 18.4707L3.01953 28.4538" stroke="white" stroke-width="4.99155" stroke-linecap="round" stroke-linejoin="round"/>
</g>
</g>
</mask>
<g mask="url(#mask0_4880_94223)">
<path id="Vector_3" d="M0.519531 0.99707H30.4688V30.9464H0.519531V0.99707Z" fill="#37474F"/>
</g>
</g>
</g>
<defs>
<clipPath id="clip0_4880_94223">
<rect width="29.9493" height="29.9493" fill="white" transform="translate(0.523438 0.99707)"/>
</clipPath>
</defs>
</svg>
